<mxfile host="app.diagrams.net" agent="Mozilla/5.0 (Windows NT 10.0; Win64; x64) AppleWebKit/537.36 (KHTML, like Gecko) Chrome/135.0.0.0 Safari/537.36" version="26.2.14">
  <diagram name="Страница — 1" id="fOZ5qRm6YopvkjDVzeWs">
    <mxGraphModel dx="1426" dy="751" grid="1" gridSize="10" guides="1" tooltips="1" connect="1" arrows="1" fold="1" page="1" pageScale="1" pageWidth="827" pageHeight="1169" math="0" shadow="0">
      <root>
        <mxCell id="0" />
        <mxCell id="1" parent="0" />
        <mxCell id="oct_xIfsUttwbgXf_aL_-3" value="" style="edgeStyle=orthogonalEdgeStyle;rounded=0;orthogonalLoop=1;jettySize=auto;html=1;" edge="1" parent="1" target="oct_xIfsUttwbgXf_aL_-2">
          <mxGeometry relative="1" as="geometry">
            <mxPoint x="250" y="1010" as="sourcePoint" />
          </mxGeometry>
        </mxCell>
        <mxCell id="oct_xIfsUttwbgXf_aL_-2" value="Аккумулятор" style="rounded=0;whiteSpace=wrap;html=1;" vertex="1" parent="1">
          <mxGeometry x="320" y="980" width="120" height="60" as="geometry" />
        </mxCell>
        <mxCell id="oct_xIfsUttwbgXf_aL_-4" value="Солнечная батарея" style="rounded=0;whiteSpace=wrap;html=1;" vertex="1" parent="1">
          <mxGeometry x="130" y="980" width="120" height="60" as="geometry" />
        </mxCell>
        <mxCell id="oct_xIfsUttwbgXf_aL_-5" value="Электроэнергия" style="rounded=0;whiteSpace=wrap;html=1;" vertex="1" parent="1">
          <mxGeometry x="130" y="1100" width="120" height="60" as="geometry" />
        </mxCell>
        <mxCell id="oct_xIfsUttwbgXf_aL_-7" value="" style="curved=1;endArrow=classic;html=1;rounded=0;entryX=0;entryY=0.5;entryDx=0;entryDy=0;exitX=1;exitY=0.5;exitDx=0;exitDy=0;" edge="1" parent="1" source="oct_xIfsUttwbgXf_aL_-5" target="oct_xIfsUttwbgXf_aL_-2">
          <mxGeometry width="50" height="50" relative="1" as="geometry">
            <mxPoint x="570" y="1090" as="sourcePoint" />
            <mxPoint x="620" y="1040" as="targetPoint" />
            <Array as="points">
              <mxPoint x="320" y="1120" />
              <mxPoint x="260" y="1040" />
            </Array>
          </mxGeometry>
        </mxCell>
        <mxCell id="oct_xIfsUttwbgXf_aL_-14" value="" style="edgeStyle=orthogonalEdgeStyle;rounded=0;orthogonalLoop=1;jettySize=auto;html=1;" edge="1" parent="1" source="oct_xIfsUttwbgXf_aL_-8" target="oct_xIfsUttwbgXf_aL_-10">
          <mxGeometry relative="1" as="geometry" />
        </mxCell>
        <mxCell id="oct_xIfsUttwbgXf_aL_-8" value="Хаб" style="rounded=0;whiteSpace=wrap;html=1;" vertex="1" parent="1">
          <mxGeometry x="230" y="180" width="120" height="60" as="geometry" />
        </mxCell>
        <mxCell id="oct_xIfsUttwbgXf_aL_-9" value="Освещение" style="whiteSpace=wrap;html=1;" vertex="1" parent="1">
          <mxGeometry x="30" y="320" width="120" height="60" as="geometry" />
        </mxCell>
        <mxCell id="oct_xIfsUttwbgXf_aL_-10" value="Климат контроль" style="whiteSpace=wrap;html=1;" vertex="1" parent="1">
          <mxGeometry x="230" y="320" width="120" height="60" as="geometry" />
        </mxCell>
        <mxCell id="oct_xIfsUttwbgXf_aL_-11" value="Энергопотребление" style="whiteSpace=wrap;html=1;" vertex="1" parent="1">
          <mxGeometry x="430" y="320" width="120" height="60" as="geometry" />
        </mxCell>
        <mxCell id="oct_xIfsUttwbgXf_aL_-13" value="" style="edgeStyle=orthogonalEdgeStyle;rounded=0;orthogonalLoop=1;jettySize=auto;html=1;" edge="1" parent="1" source="oct_xIfsUttwbgXf_aL_-12" target="oct_xIfsUttwbgXf_aL_-8">
          <mxGeometry relative="1" as="geometry" />
        </mxCell>
        <mxCell id="oct_xIfsUttwbgXf_aL_-12" value="Электроэнергия" style="whiteSpace=wrap;html=1;" vertex="1" parent="1">
          <mxGeometry x="230" y="40" width="120" height="60" as="geometry" />
        </mxCell>
        <mxCell id="oct_xIfsUttwbgXf_aL_-15" value="" style="edgeStyle=orthogonalEdgeStyle;rounded=0;orthogonalLoop=1;jettySize=auto;html=1;exitX=1;exitY=0.5;exitDx=0;exitDy=0;entryX=0.5;entryY=0;entryDx=0;entryDy=0;" edge="1" parent="1" source="oct_xIfsUttwbgXf_aL_-8" target="oct_xIfsUttwbgXf_aL_-11">
          <mxGeometry relative="1" as="geometry">
            <mxPoint x="540" y="70" as="sourcePoint" />
            <mxPoint x="610" y="70" as="targetPoint" />
          </mxGeometry>
        </mxCell>
        <mxCell id="oct_xIfsUttwbgXf_aL_-16" value="" style="edgeStyle=orthogonalEdgeStyle;rounded=0;orthogonalLoop=1;jettySize=auto;html=1;exitX=0;exitY=0.5;exitDx=0;exitDy=0;entryX=0.5;entryY=0;entryDx=0;entryDy=0;" edge="1" parent="1" source="oct_xIfsUttwbgXf_aL_-8" target="oct_xIfsUttwbgXf_aL_-9">
          <mxGeometry relative="1" as="geometry">
            <mxPoint x="-100" y="205" as="sourcePoint" />
            <mxPoint x="40" y="325" as="targetPoint" />
          </mxGeometry>
        </mxCell>
      </root>
    </mxGraphModel>
  </diagram>
</mxfile>
